Coordinates
version=1
nRows=10
nColumns=63
inDegrees=yes

Units are S.I. units (second, meters, Newtons, ...)
If the header above contains a line with 'inDegrees', this indicates whether rotational values are in degrees (yes) or radians (no).

endheader
time	pelvis_tilt	pelvis_list	pelvis_rotation	pelvis_tx	pelvis_ty	pelvis_tz	hip_flexion_r	hip_adduction_r	hip_rotation_r	knee_angle_r	knee_angle_r_beta	ankle_angle_r	subtalar_angle_r	mtp_angle_r	hip_flexion_l	hip_adduction_l	hip_rotation_l	knee_angle_l	knee_angle_l_beta	ankle_angle_l	subtalar_angle_l	mtp_angle_l	L5_S1_Flex_Ext	L5_S1_Lat_Bending	L5_S1_axial_rotation	L4_L5_Flex_Ext	L4_L5_Lat_Bending	L4_L5_axial_rotation	L3_L4_Flex_Ext	L3_L4_Lat_Bending	L3_L4_axial_rotation	L2_L3_Flex_Ext	L2_L3_Lat_Bending	L2_L3_axial_rotation	L1_L2_Flex_Ext	L1_L2_Lat_Bending	L1_L2_axial_rotation	L1_T12_Flex_Ext	L1_T12_Lat_Bending	L1_T12_axial_rotation	Abs_r3	Abs_r2	Abs_r1	Abs_t1	Abs_t2	neck_flexion	neck_bending	neck_rotation	arm_flex_r	arm_add_r	arm_rot_r	elbow_flex_r	pro_sup_r	wrist_flex_r	wrist_dev_r	arm_flex_l	arm_add_l	arm_rot_l	elbow_flex_l	pro_sup_l	wrist_flex_l	wrist_dev_l
      0.74000000	     10.48200729	     -5.59236674	     97.59411689	      0.44746007	      0.79796084	      0.68041407	      0.46618846	      5.89483685	      6.97814812	      0.52518235	      0.00916616	     19.50291247	    -12.12319961	      0.00000000	      1.81222132	     -5.86021196	     20.62763537	      1.86923512	      0.03262431	     27.04223771	    -10.81581867	      0.00000000	      0.36791877	      0.59355342	     -0.00163349	      0.68326194	      0.78942605	     -0.00173559	      0.60445374	      1.44316579	     -0.00173559	      0.42049436	      1.44316579	     -0.00142931	      0.34164937	      1.21037414	     -0.00132721	      0.21022878	      0.91941425	     -0.00122512	      2.62800695	      6.71439504	     -0.00908500	      0.00000000	      0.00000000	     27.34813136	     -9.76576639	    -19.77469213	     16.20063898	     -9.22849466	     92.55449969	     32.60393802	     16.42671574	      5.01642935	      0.68383168	     17.56160046	     -1.17764457	     90.17235463	     30.12590742	     45.67430670	     -5.38544140	     -5.00829924
      0.76000000	     10.71362125	     -5.44005364	     96.75829542	      0.44839602	      0.79793208	      0.68055063	      0.23472929	      6.16392760	      8.50228341	      0.27496761	      0.00479909	     19.00671646	    -13.22096935	      0.00000000	      1.22618553	     -6.22566775	     20.54067278	      1.18438391	      0.02067140	     26.62634783	    -11.88740279	      0.00000000	      0.31037604	      0.63960168	      0.09816893	      0.57639934	      0.85067023	      0.10430449	      0.50991679	      1.55512753	      0.10430449	      0.35472877	      1.55512753	      0.08589781	      0.28821519	      1.30427575	      0.07976226	      0.17734887	      0.99074300	      0.07362670	      2.21698499	      7.23530213	      0.54598614	      0.00000000	      0.00000000	     27.99108449	     -9.78352290	    -19.14327330	     16.23832918	     -9.45322706	     91.48122853	     32.95825547	     18.10121277	      4.62746362	     -0.02876059	     16.55343841	     -0.95467616	     87.18004428	     29.59712632	     44.44615289	     -5.38522904	     -6.12955222
      0.78000000	     10.75266347	     -5.49899332	     96.47531160	      0.44905248	      0.79744839	      0.68078690	      0.39435184	      6.20342303	      6.09183968	      0.42239453	      0.00737218	     20.27659438	     -9.22134347	      0.00000000	      1.48753512	     -6.26113495	     17.22097940	      1.66284211	      0.02902207	     27.92806263	     -7.64266948	      0.00000000	      0.30621426	      0.65271615	      0.12645693	      0.56867051	      0.86811248	      0.13436049	      0.50307941	      1.58701404	      0.13436049	      0.34997228	      1.58701404	      0.11064981	      0.28435056	      1.33101877	      0.10274625	      0.17497083	      1.01105731	      0.09484270	      2.18725785	      7.38365560	      0.70331550	      0.00000000	      0.00000000	     27.79329325	     -9.60879044	    -18.30016395	     15.79444970	     -9.53617879	     88.85364882	     33.17244646	     21.50432027	      4.11265298	      0.04314292	     16.00905471	     -0.84555366	     85.62609383	     29.43087296	     43.81607808	     -5.63529425	     -5.47260535
      0.80000000	     10.86336878	     -5.62391907	     95.39557488	      0.45045035	      0.79678944	      0.68020171	      0.41945314	      6.33954566	     10.91202556	      0.28345842	      0.00494728	     18.71289083	    -14.87063008	      0.00000000	      1.13781225	     -6.40701773	     19.67357731	      1.11960471	      0.01954079	     26.59366710	    -12.61329433	      0.00000000	      0.30573433	      0.68062783	      0.33009102	      0.56777923	      0.90523501	      0.35072171	      0.50229094	      1.65487850	      0.35072171	      0.34942377	      1.65487850	      0.28882964	      0.28390490	      1.38793626	      0.26819896	      0.17469660	      1.05429250	      0.24756827	      2.18382977	      7.69939810	      1.83586724	      0.00000000	      0.00000000	     28.07137521	     -9.67541627	    -17.65691187	     13.93417034	     -9.96416929	     80.57480228	     33.95178023	     29.80071154	      3.22979740	      2.17057121	     15.58243748	     -0.59250536	     85.20881654	     29.15644324	     42.13991876	     -5.76070778	     -5.84217995
      0.82000000	     11.01361995	     -5.60648521	     94.67227895	      0.45131739	      0.79639526	      0.67980514	      0.37872690	      6.50352361	     11.56679380	      0.28823177	      0.00503059	     18.77733756	    -14.83693006	      0.00000000	      0.95209370	     -6.57887355	     19.13692899	      1.06410634	      0.01857216	     26.61509414	    -12.79186231	      0.00000000	      0.28916608	      0.71544760	      0.44492527	      0.53701032	      0.95154531	      0.47273310	      0.47507095	      1.73953931	      0.47273310	      0.33048791	      1.73953931	      0.38930961	      0.26851962	      1.45894076	      0.36150178	      0.16522950	      1.10822834	      0.33369395	      2.06548438	      8.09328640	      2.47454085	      0.00000000	      0.00000000	     28.07213001	     -9.78385062	    -16.84985879	     12.85856583	    -10.30236600	     75.32493602	     35.07842152	     32.41956896	      1.60383843	      4.25609450	     15.36797910	     -0.54370375	     85.03635660	     29.11058969	     41.00421203	     -5.88067303	     -6.54973577
      0.84000000	     11.16493093	     -5.56594183	     93.83646554	      0.45220730	      0.79627433	      0.67933164	      0.30028097	      6.66084463	     12.36851923	      0.29935624	      0.00522475	     18.79302075	    -14.78433830	      0.00000000	      0.70563311	     -6.75125940	     18.43449473	      1.00725346	      0.01757989	     26.61008937	    -12.85857929	      0.00000000	      0.26995277	      0.74972099	      0.59422298	      0.50132929	      0.99712892	      0.63136192	      0.44350541	      1.82287162	      0.63136192	      0.30852902	      1.82287162	      0.51994511	      0.25067814	      1.52883105	      0.48280617	      0.15425101	      1.16131782	      0.44566723	      1.92824566	      8.48099383	      3.30488994	      0.00000000	      0.00000000	     28.02633924	    -10.04210034	    -16.31476916	     11.73946510	    -10.83110606	     69.68615452	     36.83569514	     34.59419711	     -1.02337578	      7.27191423	     15.38500281	     -0.67746891	     84.93902575	     29.21467831	     41.07569520	     -6.04650769	     -7.86509947
      0.86000000	     11.17639391	     -5.44364693	     93.02174244	      0.45349033	      0.79681439	      0.67878849	      0.11903674	      6.70711096	     13.12019467	      0.30723426	      0.00536225	     18.70125853	    -14.78589172	      0.00000000	      0.36793330	     -6.79080541	     17.42819786	      0.98718953	      0.01722971	     26.55103929	    -12.61429341	      0.00000000	      0.24157419	      0.75168053	      0.75191627	      0.44862742	      0.99973510	      0.79891103	      0.39688223	      1.82763603	      0.79891103	      0.27609514	      1.82763603	      0.65792673	      0.22432579	      1.53282693	      0.61093197	      0.13803549	      1.16435314	      0.56393720	      1.72554025	      8.50316046	      4.18193270	      0.00000000	      0.00000000	     27.91836260	    -10.10424031	    -16.32432020	     10.73157499	    -11.61659104	     64.25330314	     39.86131176	     36.78044451	     -4.31913391	     10.67678034	     15.64203056	     -1.21610641	     84.30208178	     29.39291845	     44.21466775	     -6.27415507	     -8.70703766
      0.88000000	     10.84680550	     -5.34136597	     92.33974066	      0.45548430	      0.79803594	      0.67822323	     -0.05019879	      6.44134487	     13.86060298	      0.31540939	      0.00550493	     18.54265019	    -14.93534124	      0.00000000	      0.05656888	     -6.51034814	     16.99178647	      0.97739754	      0.01705881	     26.03657707	    -13.10129669	      0.00000000	      0.21655688	      0.68232414	      0.86312380	      0.40216777	      0.90749111	      0.91706904	      0.35578129	      1.65900292	      0.91706904	      0.24750285	      1.65900292	      0.75523333	      0.20109472	      1.39139539	      0.70128809	      0.12374060	      1.05692010	      0.64734285	      1.54684411	      7.71858717	      4.80043564	      0.00000000	      0.00000000	     27.67397961	     -9.55450445	    -17.18102165	      9.73346446	    -12.67834316	     58.62029570	     45.27478223	     43.23676674	     -7.05156965	     14.75728497	     15.82968495	     -2.38030913	     82.32749764	     29.41151885	     52.62800217	     -7.13978011	     -8.53392415
      0.90000000	     10.32686476	     -5.14100015	     91.73119854	      0.45819693	      0.79998943	      0.67753221	     -0.32471096	      6.03743263	     14.24621103	      0.32277992	      0.00563357	     18.41379506	    -14.79124923	      0.00000000	     -0.34998484	     -6.07334653	     16.37243547	      0.99441935	      0.01735589	     25.44042774	    -13.29527081	      0.00000000	      0.18200070	      0.56527225	      0.95241668	      0.33799350	      0.75181210	      1.01194272	      0.29900895	      1.37440296	      1.01194272	      0.20800860	      1.37440296	      0.83336459	      0.16900585	      1.15270318	      0.77383855	      0.10399520	      0.87560672	      0.71431251	      1.30001279	      6.39447279	      5.29705583	      0.00000000	      0.00000000	     27.17981492	     -8.59415268	    -18.72806132	      8.77271781	    -14.13859966	     53.02873372	     53.66235284	     58.72041367	     -6.50373310	     19.95722913	     16.11706820	     -4.03168948	     80.40851592	     29.04275322	     65.26224229	     -8.49962965	     -7.56845766
      0.92000000	      9.88318911	     -4.90593056	     91.16254983	      0.46065033	      0.80199943	      0.67665403	     -0.63928995	      5.69033557	     14.68833270	      0.32725724	      0.00571172	     18.18503376	    -14.78260556	      0.00000000	     -0.79538324	     -5.69945033	     15.86050519	      1.02146767	      0.01782797	     24.83605577	    -13.59624516	      0.00000000	      0.15697127	      0.46160299	      1.00700382	      0.29151135	      0.61393198	      1.06994156	      0.25788810	      1.12234152	      1.06994156	      0.17940247	      1.12234152	      0.88112834	      0.14576352	      0.94130083	      0.81819060	      0.08969339	      0.71502304	      0.75525286	      1.12123011	      5.22174539	      5.60065313	      0.00000000	      0.00000000	     26.36876699	     -7.42792121	    -19.92210942	      8.12200481	    -16.19884700	     48.48393457	     65.29357416	     82.57119840	     -0.87652759	     24.35635511	     16.28276419	     -5.60616879	     79.24023533	     27.88648821	     75.32756216	     -9.04774370	     -6.37255079
